            <svg
              xmlns="http://www.w3.org/2000/svg"
              width="57"
              height="32"
              viewBox="0 0 57 32"
              fill="none"
            >
              <path
                fill-rule="evenodd"
                clip-rule="evenodd"
                d="M9.52727 1.67273V3.34545H21.4545H33.3818V4.65455V5.96364H34.1091H34.8364V4.65455V3.34545H44.3636H53.8909V4.65455V5.96364H55.1636H56.4364V18.9818V32H46.9091H37.3818V30.7273V29.4545H36.6909H36V30.7273V32H31.2H26.4V30.7273V29.4545H25.1288H23.8575L23.8379 27.9818L23.8182 26.5091L19.6545 26.4903L15.4909 26.4716V29.2358V32H10.6909H5.89091V30.7273V29.4545H4.61818H3.34545V19.4909V9.52727H1.67273H0V4.76364V0H4.76364H9.52727V1.67273ZM2.03636 4.8V7.56364H4.76364H7.49091V4.8V2.03636H4.76364H2.03636V4.8ZM10.9091 8.14545V10.9091H8.14545H5.38182V19.1645V27.4199L8.12727 27.4009L10.8727 27.3818L10.8918 24.6364L10.9108 21.8909H16.4009H21.8909V13.6364V5.38182H16.4H10.9091V8.14545ZM25.8909 16.4V27.4182H28.6182H31.3455V24.6545V21.8909H34.1091H36.8727V24.6554V27.4199L39.6182 27.4009L42.3636 27.3818V16.4V5.41818L39.6182 5.39913L36.8727 5.38007V10.8719V16.3636H34.1091H31.3455V10.8727V5.38182H28.6182H25.8909V16.4ZM46.3273 16.4V27.4182H49.0909H51.8545V16.4V5.38182H49.0909H46.3273V16.4ZM16.3636 13.6364V16.3636H13.6364H10.9091V13.6364V10.9091H13.6364H16.3636V13.6364Z"
                fill="#171717"
              ></path>
              <path
                fill-rule="evenodd"
                clip-rule="evenodd"
                d="M2.03906 4.79879V7.56243H4.76634H7.49361V4.79879V2.03516H4.76634H2.03906V4.79879ZM10.9118 8.14425V10.9079H8.14815H5.38452V19.1633V27.4187L8.12997 27.3997L10.8754 27.3806L10.8945 24.6352L10.9135 21.8897H16.4036H21.8936V13.6352V5.38061H16.4027H13.6572H10.9118V8.14425ZM25.8936 16.3988V27.417H28.6209H31.3482V24.6533V21.8897H34.1118H36.8754V24.6542V27.4187L39.6209 27.3997L42.3663 27.3806V16.3988V5.41697L39.6209 5.39792L36.8754 5.37887V10.8706V16.3624H34.1118H31.3482V10.8715V5.38061H28.6209H25.8936V16.3988ZM46.33 16.3988V27.417H49.0936H51.8572V16.3988V5.38061H49.0936H46.33V16.3988ZM16.3663 13.6352V16.3624H13.6391H10.9118V13.6352V10.9079H13.6391H16.3663V13.6352Z"
                fill="white"
              ></path>
            </svg>